<svg width="179" height="148" viewBox="0 0 179 148" fill="none" xmlns="http://www.w3.org/2000/svg">
<path d="M0.180054 27.7682V147.969H22.9262V23.6294H121.077V31.9579H31.2707V54.7456H120.349C135.174 54.7456 147.192 42.6604 147.192 27.8354C147.192 13.0105 135.174 0.925293 120.349 0.925293H27.023C12.198 0.925293 0.180054 12.9433 0.180054 27.7682Z" fill="#42413D"/>
<path d="M147.192 63.1008H31.2707V85.8236H147.192V63.1008Z" fill="#42413D"/>
<path d="M147.192 94.1604H58.11C43.2865 94.1604 31.2691 106.225 31.2671 121.048C31.2651 135.875 43.2836 147.944 58.11 147.944H151.476C166.301 147.944 178.319 135.926 178.319 121.101V0.925293H155.638V125.303H57.5515V116.911H147.192V94.1604Z" fill="#42413D"/>
</svg>
