<svg width="179" height="148" viewBox="0 0 179 148" fill="none" xmlns="http://www.w3.org/2000/svg">
<path d="M0.180054 27.2853V147.486H22.9262V23.1465H121.077V31.475H31.2707V54.2627H120.349C135.174 54.2627 147.192 42.1775 147.192 27.3525C147.192 12.5276 135.174 0.442383 120.349 0.442383H27.023C12.198 0.442383 0.180054 12.4604 0.180054 27.2853Z" fill="#324A3D"/>
<path d="M147.192 62.6179H31.2707V85.3407H147.192V62.6179Z" fill="#324A3D"/>
<path d="M147.192 93.6775H58.11C43.2865 93.6775 31.2691 105.742 31.2671 120.566C31.2651 135.392 43.2836 147.461 58.11 147.461H151.476C166.301 147.461 178.319 135.443 178.319 120.618V0.442383H155.638V124.82H57.5515V116.428H147.192V93.6775Z" fill="#324A3D"/>
</svg>
